<svg width="270" height="820" viewBox="0 0 270 820" fill="none" xmlns="http://www.w3.org/2000/svg">
<g filter="url(#filter0_d)">
<path d="M250 40C250 23.4315 236.569 10 220 10H0V810H220C236.569 810 250 796.569 250 780V40Z" fill="#F9F9F9"/>
</g>
<mask id="mask0" mask-type="alpha" maskUnits="userSpaceOnUse" x="0" y="10" width="250" height="800">
<path d="M250 40C250 23.4315 236.569 10 220 10H0V810H220C236.569 810 250 796.569 250 780V40Z" fill="#F9F9F9"/>
</mask>
<g mask="url(#mask0)">
<path d="M-37.3095 552.082C-45.0166 579.231 22.2477 612.946 25.6327 614.208L46.6083 606.264C51.0626 602.033 62.1062 592.109 70.6462 586.257C81.3219 578.944 72.6312 567.626 60.7912 559.392C48.9505 551.157 51.8019 540.339 57.1419 531.411C62.4826 522.484 55.5262 512.405 46.6083 509.969C37.6905 507.531 44.9755 496.409 49.1555 485.378C53.3355 474.346 32.2448 471.432 19.5998 472.587C6.95553 473.742 4.07194 455.575 -7.80234 449.169C-19.6766 442.764 -23.8809 458.53 -21.0352 465.084C-18.1895 471.637 -25.8345 479.214 -37.3095 485.378C-48.7845 491.541 -39.448 514.144 -27.9623 524.934C-15.3788 536.755 -33.5966 539.001 -37.3095 552.082Z" fill="#D1D95E"/>
<path d="M122.209 526.741C126.423 544.637 84.1099 568.433 81.9892 569.341L69.1713 564.486C66.502 561.764 59.8706 555.389 54.7049 551.673C48.2477 547.027 53.857 539.324 61.352 533.605C68.8477 527.887 67.3042 520.751 64.182 514.924C61.0591 509.096 65.5699 502.251 71.1384 500.448C76.707 498.646 72.4256 491.397 70.0641 484.146C67.7027 476.896 80.8141 474.527 88.6156 475.037C96.417 475.547 98.572 463.406 106.051 458.904C113.53 454.402 115.81 464.801 113.915 469.217C112.02 473.634 116.596 478.516 123.571 482.381C130.546 486.245 124.307 501.468 116.979 508.877C108.951 516.996 120.178 518.117 122.209 526.741Z" fill="#B3C13C"/>
<path d="M49.961 465.87L45.9606 465.019C44.9263 464.799 43.9095 465.459 43.6895 466.493L18.3682 585.523C18.1482 586.557 18.8083 587.574 19.8425 587.794L23.8429 588.645C24.8772 588.865 25.894 588.205 26.114 587.17L51.4353 468.141C51.6553 467.107 50.9952 466.09 49.961 465.87Z" fill="#EFC474"/>
<path d="M47.7628 554.384C51.9778 572.281 9.66429 596.076 7.54358 596.984L-5.27428 592.13C-7.94428 589.407 -14.5757 583.033 -19.7414 579.316C-26.1978 574.671 -20.5886 566.967 -13.0936 561.249C-5.59858 555.531 -7.1414 548.394 -10.2643 542.567C-13.3864 536.739 -8.87569 529.894 -3.30712 528.091C2.26074 526.289 -2.02 519.041 -4.38142 511.791C-6.74285 504.539 6.36786 502.171 14.1693 502.681C21.9707 503.191 24.1264 491.05 31.605 486.548C39.0843 482.046 41.3636 492.444 39.4686 496.861C37.5743 501.277 42.1507 506.16 49.1257 510.024C56.1007 513.889 49.8614 529.111 42.5328 536.521C34.5043 544.639 45.7321 545.761 47.7628 554.384Z" fill="#B3C13C"/>
<path d="M32.8398 689.821C137.696 689.821 222.699 684.344 222.699 677.589C222.699 670.833 137.696 665.356 32.8398 665.356C-72.0166 665.356 -157.02 670.833 -157.02 677.589C-157.02 684.344 -72.0166 689.821 32.8398 689.821Z" fill="#4A3D24" fill-opacity="0.1"/>
<path fill-rule="evenodd" clip-rule="evenodd" d="M212.407 663.634C212.408 663.615 212.409 663.597 212.409 663.578C212.409 655.641 132.7 649.207 34.3743 649.207C-63.9521 649.207 -143.661 655.641 -143.661 663.578C-143.661 663.675 -143.649 663.772 -143.625 663.869H-143.662V672.319C-143.662 680.256 -63.9529 686.691 34.3729 686.691C132.699 686.691 212.407 680.256 212.407 672.319V663.634Z" fill="white"/>
<path d="M23.0552 569.167C32.376 569.167 39.9321 561.611 39.9321 552.29C39.9321 542.969 32.376 535.413 23.0552 535.413C13.7343 535.413 6.17822 542.969 6.17822 552.29C6.17822 561.611 13.7343 569.167 23.0552 569.167Z" fill="#6E2AC4"/>
<path d="M206.164 578.786C214.858 578.786 221.906 571.738 221.906 563.044C221.906 554.35 214.858 547.302 206.164 547.302C197.469 547.302 190.421 554.35 190.421 563.044C190.421 571.738 197.469 578.786 206.164 578.786Z" fill="#6E2AC4"/>
<path d="M61.0045 504.244C66.1331 509.016 70.1216 521.373 64.8038 527.087C59.4859 532.802 46.8752 529.711 41.7466 524.939C36.6173 520.166 32.5731 507.757 37.8909 502.043C43.2088 496.328 55.8752 499.471 61.0045 504.244Z" fill="#3F3F3F"/>
<path d="M187.851 664.998C187.851 669.021 116.612 670.332 28.735 670.332C-59.1429 670.332 -117.501 668.866 -117.501 664.844C-111.434 652.708 -59.1429 657.714 28.735 657.714C116.612 657.714 187.851 660.975 187.851 664.998Z" fill="#4A3D24" fill-opacity="0.1"/>
<path d="M55.1741 560.577C70.8824 560.577 83.6164 547.843 83.6164 532.135C83.6164 516.427 70.8824 503.693 55.1741 503.693C39.4659 503.693 26.7319 516.427 26.7319 532.135C26.7319 547.843 39.4659 560.577 55.1741 560.577Z" fill="#FF2030"/>
<path d="M55.1734 555.959C67.2469 555.959 77.0343 546.172 77.0343 534.098C77.0343 522.025 67.2469 512.238 55.1734 512.238C43.1 512.238 33.3125 522.025 33.3125 534.098C33.3125 546.172 43.1 555.959 55.1734 555.959Z" fill="#FF616C"/>
<path d="M66.0444 598.688C103.487 568.77 148.347 488.213 166.096 451.674C131.405 549.491 91.1759 584.619 71.6287 601.325L66.0444 598.688Z" fill="#138600"/>
<path d="M168.757 508.483C165.074 514.442 153.73 520.76 147.089 516.656C140.449 512.552 141.027 499.581 144.71 493.621C148.394 487.661 159.777 481.279 166.417 485.383C173.058 489.487 172.44 502.523 168.757 508.483Z" fill="#3F3F3F"/>
<path d="M1.00129 591.322C14.2121 591.322 24.9215 580.613 24.9215 567.402C24.9215 554.191 14.2121 543.482 1.00129 543.482C-12.2095 543.482 -22.9189 554.191 -22.9189 567.402C-22.9189 580.613 -12.2095 591.322 1.00129 591.322Z" fill="#FF2030"/>
<path d="M160.105 559.9C178.167 559.9 192.809 545.258 192.809 527.196C192.809 509.134 178.167 494.492 160.105 494.492C142.043 494.492 127.401 509.134 127.401 527.196C127.401 545.258 142.043 559.9 160.105 559.9Z" fill="#FF2030"/>
<path d="M-131.011 542.435C-141.582 544.393 -126.606 570.005 -117.796 582.566H-87.942C-62.3298 584.361 -8.46126 586.189 2.10945 579.141C15.3237 570.332 -8.65771 563.48 -17.9563 555.65C-27.2549 547.819 -5.72055 524.816 -29.2127 512.581C-52.7041 500.346 -63.9605 552.224 -73.2598 552.224C-82.5584 552.224 -71.7913 521.879 -91.3677 520.411C-110.944 518.943 -100.178 546.84 -105.561 552.224C-110.944 557.607 -117.796 539.988 -131.011 542.435Z" fill="#B3C13C"/>
<path d="M213.022 527.752C228.248 530.572 206.677 567.463 193.989 585.555H150.988C114.097 588.141 116.184 585.555 116.184 585.555L103.495 562.419C103.495 562.419 127.725 498.144 155.922 496.029C184.119 493.914 168.611 534.096 176.365 541.851C184.119 549.604 193.989 524.227 213.022 527.752Z" fill="#A7B200"/>
<path d="M100.206 518.064C92.4723 520.349 78.1451 528.281 82.7016 541.723C88.3973 558.526 106.943 562.424 112.961 557.366C117.775 553.321 123.147 544.946 125.23 541.264C132.729 544.967 150.222 549.012 160.201 535.572C170.179 522.132 170.059 510.439 168.752 506.272C173.859 503.473 182.433 494.67 175.877 481.856C167.682 465.837 141.49 472.577 141.517 485.455" stroke="#B61A26" stroke-width="3.57391"/>
<path d="M76.6141 473.981C62.1655 468.409 44.2319 552.749 45.5669 574.808L86.9827 587.56C117.058 609.082 126.617 590.322 126.617 590.322L147.071 594.417C147.071 594.417 164.785 493.424 141.871 476.857C118.956 460.289 111.126 502.642 100.46 505.187C89.7934 507.732 94.6748 480.945 76.6141 473.981Z" fill="#D1D95E"/>
<path d="M209.975 505.196L196.514 499.153L145.102 613.663L158.562 619.706L209.975 505.196Z" fill="#FFC940"/>
<path d="M74.2094 551.431C79.3387 556.204 83.3272 568.56 78.0093 574.275C72.6915 579.989 60.0808 576.899 54.9515 572.126C49.8229 567.353 45.7787 554.945 51.0965 549.23C56.4144 543.516 69.0808 546.659 74.2094 551.431Z" fill="#3F3F3F"/>
<path d="M-23.397 484.554L-29.5728 489.511L48.9987 587.401L55.1744 582.444L-23.397 484.554Z" fill="#EDB21B"/>
<path d="M62.9302 519.722L69.106 524.679L-9.46554 622.569L-15.6413 617.612L62.9302 519.722Z" fill="#EDB21B"/>
<path d="M93.6152 646.526C131.058 616.608 175.918 536.05 193.667 499.511C158.977 597.329 118.747 632.457 99.2003 649.163L93.6152 646.526Z" fill="#138600"/>
<path d="M-63.4507 628.925C-26.0078 599.007 18.8515 518.45 36.6007 481.911C1.91074 579.728 -38.3193 614.856 -57.8664 631.562L-63.4507 628.925Z" fill="#138600"/>
<path d="M63.2363 512.834C67.5963 506.051 79.2241 494.519 90.852 502.659C105.386 512.834 103.933 531.729 97.392 536.089C92.1598 539.577 82.6155 542.387 78.497 543.356C79.9505 551.592 78.9334 569.518 63.2363 575.331C47.5391 581.145 36.3477 577.754 32.7141 575.331C28.5955 579.45 17.7434 585.215 7.2784 575.331C-5.80232 562.977 8.00552 539.722 20.3598 543.356" stroke="#FFD704" stroke-width="3.57391"/>
<path d="M-0.136993 495.948C1.03782 495.948 1.99017 494.996 1.99017 493.821C1.99017 492.646 1.03782 491.694 -0.136993 491.694C-1.3118 491.694 -2.26416 492.646 -2.26416 493.821C-2.26416 494.996 -1.3118 495.948 -0.136993 495.948Z" fill="#FCFCFC"/>
<path d="M157.249 495.944C158.826 495.944 160.105 494.666 160.105 493.088C160.105 491.511 158.826 490.233 157.249 490.233C155.672 490.233 154.394 491.511 154.394 493.088C154.394 494.666 155.672 495.944 157.249 495.944Z" fill="#FCFCFC"/>
<path d="M53.0471 559.576C54.2219 559.576 55.1743 558.624 55.1743 557.449C55.1743 556.274 54.2219 555.322 53.0471 555.322C51.8723 555.322 50.9199 556.274 50.9199 557.449C50.9199 558.624 51.8723 559.576 53.0471 559.576Z" fill="#FCFCFC"/>
<path d="M129.528 551.546C130.703 551.546 131.655 550.594 131.655 549.419C131.655 548.244 130.703 547.292 129.528 547.292C128.353 547.292 127.401 548.244 127.401 549.419C127.401 550.594 128.353 551.546 129.528 551.546Z" fill="#FCFCFC"/>
<path d="M143.384 515.097C144.559 515.097 145.512 514.145 145.512 512.97C145.512 511.795 144.559 510.843 143.384 510.843C142.21 510.843 141.257 511.795 141.257 512.97C141.257 514.145 142.21 515.097 143.384 515.097Z" fill="#FCFCFC"/>
<path d="M103.495 482.207C104.67 482.207 105.622 481.254 105.622 480.079C105.622 478.905 104.67 477.952 103.495 477.952C102.32 477.952 101.368 478.905 101.368 480.079C101.368 481.254 102.32 482.207 103.495 482.207Z" fill="#FCFCFC"/>
<path d="M121.524 533.84C122.698 533.84 123.651 532.888 123.651 531.713C123.651 530.538 122.698 529.586 121.524 529.586C120.349 529.586 119.396 530.538 119.396 531.713C119.396 532.888 120.349 533.84 121.524 533.84Z" fill="#FCFCFC"/>
<path d="M58.5979 522.476C59.7727 522.476 60.7251 521.523 60.7251 520.349C60.7251 519.174 59.7727 518.221 58.5979 518.221C57.4231 518.221 56.4707 519.174 56.4707 520.349C56.4707 521.523 57.4231 522.476 58.5979 522.476Z" fill="#FCFCFC"/>
<path d="M206.163 551.55C207.636 551.55 208.83 550.356 208.83 548.883C208.83 547.411 207.636 546.217 206.163 546.217C204.691 546.217 203.497 547.411 203.497 548.883C203.497 550.356 204.691 551.55 206.163 551.55Z" fill="#FCFCFC"/>
<path d="M180.47 551.546C181.645 551.546 182.597 550.594 182.597 549.419C182.597 548.244 181.645 547.292 180.47 547.292C179.295 547.292 178.343 548.244 178.343 549.419C178.343 550.594 179.295 551.546 180.47 551.546Z" fill="#FCFCFC"/>
<path d="M117.53 514.967C118.705 514.967 119.657 514.015 119.657 512.84C119.657 511.665 118.705 510.713 117.53 510.713C116.355 510.713 115.403 511.665 115.403 512.84C115.403 514.015 116.355 514.967 117.53 514.967Z" fill="#FCFCFC"/>
<path d="M15.4971 478.445C16.3271 478.445 17 477.772 17 476.942C17 476.112 16.3271 475.439 15.4971 475.439C14.667 475.439 13.9941 476.112 13.9941 476.942C13.9941 477.772 14.667 478.445 15.4971 478.445Z" fill="#FCFCFC"/>
<path d="M157.593 556.859C158.981 556.859 160.106 555.734 160.106 554.346C160.106 552.958 158.981 551.833 157.593 551.833C156.205 551.833 155.08 552.958 155.08 554.346C155.08 555.734 156.205 556.859 157.593 556.859Z" fill="#FCFCFC"/>
<path d="M200.942 557.451C202.494 557.451 203.751 556.193 203.751 554.642C203.751 553.091 202.494 551.833 200.942 551.833C199.391 551.833 198.133 553.091 198.133 554.642C198.133 556.193 199.391 557.451 200.942 557.451Z" fill="#FCFCFC"/>
<path d="M91.0722 558.978C92.6236 558.978 93.8812 557.72 93.8812 556.169C93.8812 554.617 92.6236 553.36 91.0722 553.36C89.5208 553.36 88.2632 554.617 88.2632 556.169C88.2632 557.72 89.5208 558.978 91.0722 558.978Z" fill="#FCFCFC"/>
<path d="M121.524 600.367C137.232 600.367 149.966 587.633 149.966 571.924C149.966 556.216 137.232 543.482 121.524 543.482C105.816 543.482 93.082 556.216 93.082 571.924C93.082 587.633 105.816 600.367 121.524 600.367Z" fill="#FF2030"/>
<path d="M121.525 595.749C133.598 595.749 143.386 585.961 143.386 573.888C143.386 561.814 133.598 552.027 121.525 552.027C109.452 552.027 99.6641 561.814 99.6641 573.888C99.6641 585.961 109.452 595.749 121.525 595.749Z" fill="#FF616C"/>
<path d="M174.305 556.822C169.176 561.595 165.188 573.951 170.506 579.666C175.823 585.38 188.434 582.289 193.563 577.516C198.692 572.744 202.736 560.335 197.418 554.621C192.101 548.906 179.434 552.049 174.305 556.822Z" fill="#3F3F3F"/>
<path fill-rule="evenodd" clip-rule="evenodd" d="M-41.1884 565.264H-161.235L-122.354 658.968C-120.574 663.257 -116.387 666.052 -111.743 666.052H-41.1884H109.936H180.491C185.134 666.052 189.322 663.257 191.101 658.968L229.982 565.264H109.936H-41.1884ZM34.3752 677.799C132.369 677.799 211.87 671.409 212.407 663.508H212.409V672.169C212.409 680.106 132.7 686.54 34.3738 686.54C-63.952 686.54 -143.661 680.106 -143.661 672.169V663.719H-143.623C-141.706 671.522 -62.7477 677.799 34.3752 677.799Z" fill="#4AABF8"/>
<path fill-rule="evenodd" clip-rule="evenodd" d="M210.458 612.312L202.502 631.487C193.82 652.411 182.445 666.05 159.791 666.05H109.935H-41.1895H-90.7252C-113.379 666.05 -125.939 653.979 -133.757 631.486L-141.219 613.503C-121.272 630.024 -91.2588 650.455 -63.6088 651.742C-58.5223 651.979 -53.3645 652.225 -48.1488 652.475C9.50625 655.235 74.2234 658.333 127.943 651.742C160.22 647.781 191.478 627.238 210.458 612.312Z" fill="#4A3D24" fill-opacity="0.1"/>
</g>
<path d="M102.705 96V60.209H109.932V96H102.705ZM128.682 70.0723V75.541H123.994V85.9902C123.994 88.1061 124.035 89.3431 124.116 89.7012C124.214 90.043 124.417 90.3278 124.727 90.5557C125.052 90.7835 125.443 90.8975 125.898 90.8975C126.533 90.8975 127.453 90.6777 128.657 90.2383L129.243 95.5605C127.648 96.2441 125.841 96.5859 123.823 96.5859C122.586 96.5859 121.471 96.3825 120.479 95.9756C119.486 95.5524 118.753 95.0153 118.281 94.3643C117.826 93.6969 117.508 92.8018 117.329 91.6787C117.183 90.8812 117.109 89.2699 117.109 86.8447V75.541H113.96V70.0723H117.109V64.9209L123.994 60.917V70.0723H128.682ZM148.457 87.748L155.293 88.8955C154.414 91.402 153.022 93.3145 151.118 94.6328C149.23 95.9349 146.862 96.5859 144.014 96.5859C139.505 96.5859 136.169 95.113 134.004 92.167C132.295 89.807 131.44 86.8285 131.44 83.2314C131.44 78.9346 132.563 75.5736 134.81 73.1484C137.056 70.707 139.896 69.4863 143.33 69.4863C147.188 69.4863 150.231 70.764 152.461 73.3193C154.691 75.8584 155.757 79.7565 155.659 85.0137H138.472C138.521 87.0482 139.074 88.6351 140.132 89.7744C141.19 90.8975 142.508 91.459 144.087 91.459C145.161 91.459 146.064 91.166 146.797 90.5801C147.529 89.9941 148.083 89.0501 148.457 87.748ZM148.848 80.8145C148.799 78.8288 148.286 77.3232 147.31 76.2979C146.333 75.2562 145.145 74.7354 143.745 74.7354C142.248 74.7354 141.011 75.2806 140.034 76.3711C139.058 77.4616 138.577 78.9427 138.594 80.8145H148.848ZM160.762 70.0723H167.085V73.6123C169.347 70.8617 172.041 69.4863 175.166 69.4863C176.826 69.4863 178.267 69.8281 179.487 70.5117C180.708 71.1953 181.709 72.2288 182.49 73.6123C183.63 72.2288 184.858 71.1953 186.177 70.5117C187.495 69.8281 188.903 69.4863 190.4 69.4863C192.305 69.4863 193.916 69.877 195.234 70.6582C196.553 71.4232 197.537 72.5544 198.188 74.0518C198.66 75.1585 198.896 76.9489 198.896 79.4229V96H192.036V81.1807C192.036 78.609 191.8 76.9489 191.328 76.2002C190.693 75.2236 189.717 74.7354 188.398 74.7354C187.438 74.7354 186.535 75.0283 185.688 75.6143C184.842 76.2002 184.232 77.0628 183.857 78.2021C183.483 79.3252 183.296 81.1074 183.296 83.5488V96H176.436V81.791C176.436 79.2682 176.313 77.6406 176.069 76.9082C175.825 76.1758 175.443 75.6305 174.922 75.2725C174.417 74.9144 173.726 74.7354 172.847 74.7354C171.789 74.7354 170.837 75.0202 169.99 75.5898C169.144 76.1595 168.534 76.9814 168.159 78.0557C167.801 79.1299 167.622 80.9121 167.622 83.4023V96H160.762V70.0723ZM203.34 88.6025L210.225 87.5527C210.518 88.8874 211.112 89.9046 212.007 90.6045C212.902 91.2881 214.155 91.6299 215.767 91.6299C217.541 91.6299 218.875 91.3044 219.771 90.6533C220.373 90.1976 220.674 89.5872 220.674 88.8223C220.674 88.3014 220.511 87.8701 220.186 87.5283C219.844 87.2028 219.079 86.9017 217.891 86.625C212.357 85.4043 208.849 84.2894 207.368 83.2803C205.317 81.8805 204.292 79.9355 204.292 77.4453C204.292 75.1992 205.179 73.3112 206.953 71.7812C208.727 70.2513 211.478 69.4863 215.205 69.4863C218.753 69.4863 221.39 70.0641 223.115 71.2197C224.84 72.3753 226.029 74.0843 226.68 76.3467L220.21 77.543C219.933 76.5339 219.404 75.7607 218.623 75.2236C217.858 74.6865 216.759 74.418 215.327 74.418C213.521 74.418 212.227 74.6702 211.445 75.1748C210.924 75.5329 210.664 75.9967 210.664 76.5664C210.664 77.0547 210.892 77.4697 211.348 77.8115C211.966 78.2673 214.098 78.9102 217.744 79.7402C221.406 80.5703 223.962 81.5876 225.41 82.792C226.842 84.0127 227.559 85.7135 227.559 87.8945C227.559 90.2708 226.566 92.3135 224.58 94.0225C222.594 95.7314 219.657 96.5859 215.767 96.5859C212.235 96.5859 209.435 95.8698 207.368 94.4375C205.317 93.0052 203.975 91.0602 203.34 88.6025Z" fill="#4AABF8"/>
<path fill-rule="evenodd" clip-rule="evenodd" d="M30 60H60V65H30V60ZM30 70H60V75H30V70ZM60 80H30V85H60V80Z" fill="#4AABF8"/>
<defs>
<filter id="filter0_d" x="0" y="0" width="270" height="820" filterUnits="userSpaceOnUse" color-interpolation-filters="sRGB">
<feFlood flood-opacity="0" result="BackgroundImageFix"/>
<feColorMatrix in="SourceAlpha" type="matrix" values="0 0 0 0 0 0 0 0 0 0 0 0 0 0 0 0 0 0 127 0"/>
<feOffset dx="10"/>
<feGaussianBlur stdDeviation="5"/>
<feColorMatrix type="matrix" values="0 0 0 0 0.898039 0 0 0 0 0.898039 0 0 0 0 0.898039 0 0 0 1 0"/>
<feBlend mode="normal" in2="BackgroundImageFix" result="effect1_dropShadow"/>
<feBlend mode="normal" in="SourceGraphic" in2="effect1_dropShadow" result="shape"/>
</filter>
</defs>
</svg>
