<svg width="280" height="820" viewBox="0 0 280 820" fill="none" xmlns="http://www.w3.org/2000/svg">
<g filter="url(#filter0_d)">
<path d="M20 40C20 23.4315 33.4315 10 50 10H280V810H50C33.4315 810 20 796.569 20 780V40Z" fill="#F9F9F9"/>
</g>
<path d="M43.6865 96V60.209H68.2227V66.2637H50.9131V74.7354H65.8545V80.79H50.9131V96H43.6865ZM72.5684 82.6699C72.5684 80.3913 73.1299 78.1859 74.2529 76.0537C75.376 73.9215 76.9629 72.2939 79.0137 71.1709C81.0807 70.0479 83.3838 69.4863 85.9229 69.4863C89.8454 69.4863 93.0599 70.764 95.5664 73.3193C98.0729 75.8584 99.3262 79.0729 99.3262 82.9629C99.3262 86.8854 98.0566 90.1406 95.5176 92.7285C92.9948 95.3001 89.8128 96.5859 85.9717 96.5859C83.5954 96.5859 81.3249 96.0488 79.1602 94.9746C77.0117 93.9004 75.376 92.3298 74.2529 90.2627C73.1299 88.1794 72.5684 85.6484 72.5684 82.6699ZM79.5996 83.0361C79.5996 85.6077 80.21 87.5771 81.4307 88.9443C82.6514 90.3115 84.1569 90.9951 85.9473 90.9951C87.7376 90.9951 89.235 90.3115 90.4395 88.9443C91.6602 87.5771 92.2705 85.5915 92.2705 82.9873C92.2705 80.4482 91.6602 78.4951 90.4395 77.1279C89.235 75.7607 87.7376 75.0771 85.9473 75.0771C84.1569 75.0771 82.6514 75.7607 81.4307 77.1279C80.21 78.4951 79.5996 80.4645 79.5996 83.0361ZM103.135 82.6699C103.135 80.3913 103.696 78.1859 104.819 76.0537C105.942 73.9215 107.529 72.2939 109.58 71.1709C111.647 70.0479 113.95 69.4863 116.489 69.4863C120.412 69.4863 123.626 70.764 126.133 73.3193C128.639 75.8584 129.893 79.0729 129.893 82.9629C129.893 86.8854 128.623 90.1406 126.084 92.7285C123.561 95.3001 120.379 96.5859 116.538 96.5859C114.162 96.5859 111.891 96.0488 109.727 94.9746C107.578 93.9004 105.942 92.3298 104.819 90.2627C103.696 88.1794 103.135 85.6484 103.135 82.6699ZM110.166 83.0361C110.166 85.6077 110.776 87.5771 111.997 88.9443C113.218 90.3115 114.723 90.9951 116.514 90.9951C118.304 90.9951 119.801 90.3115 121.006 88.9443C122.227 87.5771 122.837 85.5915 122.837 82.9873C122.837 80.4482 122.227 78.4951 121.006 77.1279C119.801 75.7607 118.304 75.0771 116.514 75.0771C114.723 75.0771 113.218 75.7607 111.997 77.1279C110.776 78.4951 110.166 80.4645 110.166 83.0361ZM159.067 96H152.695V92.1914C151.637 93.6725 150.384 94.7793 148.936 95.5117C147.503 96.2279 146.055 96.5859 144.59 96.5859C141.611 96.5859 139.056 95.3896 136.924 92.9971C134.808 90.5882 133.75 87.2354 133.75 82.9385C133.75 78.5439 134.784 75.2074 136.851 72.9287C138.918 70.6338 141.53 69.4863 144.688 69.4863C147.585 69.4863 150.091 70.6908 152.207 73.0996V60.209H159.067V96ZM140.757 82.4746C140.757 85.2415 141.139 87.2435 141.904 88.4805C143.011 90.2708 144.557 91.166 146.543 91.166C148.122 91.166 149.465 90.4987 150.571 89.1641C151.678 87.8132 152.231 85.8031 152.231 83.1338C152.231 80.1553 151.694 78.015 150.62 76.7129C149.546 75.3945 148.171 74.7354 146.494 74.7354C144.867 74.7354 143.499 75.3864 142.393 76.6885C141.302 77.9743 140.757 79.903 140.757 82.4746ZM60.2881 139.841V133.811H75.8643V148.068C74.3506 149.533 72.1533 150.827 69.2725 151.95C66.4079 153.057 63.5026 153.61 60.5566 153.61C56.8132 153.61 53.5498 152.829 50.7666 151.267C47.9834 149.688 45.8919 147.442 44.4922 144.528C43.0924 141.599 42.3926 138.417 42.3926 134.982C42.3926 131.255 43.1738 127.943 44.7363 125.046C46.2988 122.149 48.5856 119.927 51.5967 118.381C53.8916 117.193 56.748 116.599 60.166 116.599C64.6094 116.599 68.0762 117.535 70.5664 119.406C73.0729 121.262 74.6842 123.833 75.4004 127.121L68.2227 128.464C67.7181 126.706 66.766 125.323 65.3662 124.313C63.9827 123.288 62.2493 122.775 60.166 122.775C57.0085 122.775 54.4938 123.776 52.6221 125.778C50.7666 127.78 49.8389 130.751 49.8389 134.689C49.8389 138.938 50.7829 142.128 52.6709 144.26C54.5589 146.376 57.0329 147.434 60.0928 147.434C61.6064 147.434 63.1201 147.141 64.6338 146.555C66.1637 145.952 67.474 145.228 68.5645 144.382V139.841H60.2881ZM89.0723 153H82.2119V127.072H88.584V130.759C89.6745 129.017 90.651 127.87 91.5137 127.316C92.3926 126.763 93.3854 126.486 94.4922 126.486C96.0547 126.486 97.5602 126.918 99.0088 127.78L96.8848 133.762C95.7292 133.013 94.6549 132.639 93.6621 132.639C92.7018 132.639 91.888 132.907 91.2207 133.444C90.5534 133.965 90.0244 134.917 89.6338 136.301C89.2594 137.684 89.0723 140.581 89.0723 144.992V153ZM100.4 139.67C100.4 137.391 100.962 135.186 102.085 133.054C103.208 130.922 104.795 129.294 106.846 128.171C108.913 127.048 111.216 126.486 113.755 126.486C117.677 126.486 120.892 127.764 123.398 130.319C125.905 132.858 127.158 136.073 127.158 139.963C127.158 143.885 125.889 147.141 123.35 149.729C120.827 152.3 117.645 153.586 113.804 153.586C111.427 153.586 109.157 153.049 106.992 151.975C104.844 150.9 103.208 149.33 102.085 147.263C100.962 145.179 100.4 142.648 100.4 139.67ZM107.432 140.036C107.432 142.608 108.042 144.577 109.263 145.944C110.483 147.312 111.989 147.995 113.779 147.995C115.57 147.995 117.067 147.312 118.271 145.944C119.492 144.577 120.103 142.591 120.103 139.987C120.103 137.448 119.492 135.495 118.271 134.128C117.067 132.761 115.57 132.077 113.779 132.077C111.989 132.077 110.483 132.761 109.263 134.128C108.042 135.495 107.432 137.465 107.432 140.036ZM149.619 153V149.118C148.675 150.502 147.43 151.592 145.884 152.39C144.354 153.187 142.734 153.586 141.025 153.586C139.284 153.586 137.721 153.203 136.338 152.438C134.954 151.674 133.953 150.599 133.335 149.216C132.716 147.832 132.407 145.92 132.407 143.479V127.072H139.268V138.986C139.268 142.632 139.39 144.87 139.634 145.7C139.894 146.514 140.358 147.165 141.025 147.653C141.693 148.125 142.539 148.361 143.564 148.361C144.736 148.361 145.786 148.044 146.714 147.409C147.642 146.758 148.276 145.961 148.618 145.017C148.96 144.056 149.131 141.721 149.131 138.01V127.072H155.991V153H149.619ZM162.925 127.072H169.321V130.881C170.151 129.579 171.274 128.521 172.69 127.707C174.106 126.893 175.677 126.486 177.402 126.486C180.413 126.486 182.969 127.666 185.068 130.026C187.168 132.386 188.218 135.674 188.218 139.89C188.218 144.219 187.16 147.588 185.044 149.997C182.928 152.39 180.365 153.586 177.354 153.586C175.921 153.586 174.619 153.301 173.447 152.731C172.292 152.162 171.071 151.185 169.785 149.802V162.863H162.925V127.072ZM169.712 139.597C169.712 142.51 170.29 144.667 171.445 146.066C172.601 147.45 174.009 148.142 175.669 148.142C177.264 148.142 178.59 147.507 179.648 146.237C180.706 144.951 181.235 142.852 181.235 139.938C181.235 137.22 180.69 135.202 179.6 133.884C178.509 132.565 177.158 131.906 175.547 131.906C173.87 131.906 172.479 132.557 171.372 133.859C170.265 135.145 169.712 137.058 169.712 139.597Z" fill="#F4B23F"/>
<mask id="mask0" mask-type="alpha" maskUnits="userSpaceOnUse" x="18" y="10" width="250" height="800">
<path d="M18 40C18 23.4315 31.4315 10 48 10H268V810H48C31.4315 810 18 796.569 18 780V40Z" fill="#F9F9F9"/>
</mask>
<g mask="url(#mask0)">
<path d="M104.111 417.143H107.421V474.518H104.111V417.143Z" fill="#FF8282"/>
<path fill-rule="evenodd" clip-rule="evenodd" d="M128.385 462.231C128.385 461.094 127.464 460.174 126.328 460.174H85.2038C84.0681 460.174 83.1467 461.094 83.1467 462.231V465.691H76.0767C73.8881 465.691 72.1138 467.466 72.1138 469.655V477.176C72.1138 479.364 73.8881 481.139 76.0767 481.139H77.5474L84.2524 568.304H126.732L132.958 481.139H134.352C136.542 481.139 138.316 479.364 138.316 477.176V469.655C138.316 467.466 136.542 465.691 134.352 465.691H128.385V462.231Z" fill="white"/>
<path d="M77.6287 481.139L126.177 568.857H84.2494L77.6287 481.139Z" fill="black" fill-opacity="0.16"/>
<path fill-rule="evenodd" clip-rule="evenodd" d="M126.328 460.174C127.464 460.174 128.385 461.094 128.385 462.231V465.691H134.352C136.542 465.691 138.316 467.466 138.316 469.655V477.176C138.316 479.364 136.542 481.139 134.352 481.139H76.0767C73.8881 481.139 72.1138 479.364 72.1138 477.176V469.655C72.1138 467.466 73.8881 465.691 76.0767 465.691H83.1467V462.231C83.1467 461.094 84.0681 460.174 85.2038 460.174H126.328Z" fill="black" fill-opacity="0.37"/>
<path d="M72.1151 471.209H138.317V477.829H72.1151V471.209Z" fill="#FFE1E1" fill-opacity="0.06"/>
<path fill-rule="evenodd" clip-rule="evenodd" d="M78.73 498.792H131.692L130.037 523.618H80.9371L78.73 498.792ZM385 574.342C385 571.278 382.516 568.794 379.451 568.794H45.1929C42.1286 568.794 39.6443 571.278 39.6443 574.342V585.312C39.6443 588.377 42.1286 590.862 45.1929 590.862H76.0535V701.199H93.7078V590.862H322.105V702.304H339.759V590.862H379.451C382.516 590.862 385 588.377 385 585.312V574.342Z" fill="#F4B23F"/>
<path d="M45.1611 579.83H379.483C382.53 579.83 385 582.3 385 585.347C385 588.394 382.53 590.864 379.483 590.864H45.1611C42.1143 590.864 39.6443 588.394 39.6443 585.347C39.6443 582.3 42.1143 579.83 45.1611 579.83Z" fill="black" fill-opacity="0.09"/>
<path d="M92.6045 591.966L84.881 605.206V701.199H92.6045V591.966Z" fill="black" fill-opacity="0.06"/>
<path d="M133.766 555.019H308.897C310.492 555.019 311.785 556.312 311.785 557.907V565.532C311.785 567.127 310.492 568.42 308.897 568.42H133.766C132.171 568.42 130.878 567.127 130.878 565.532V557.907C130.878 556.312 132.171 555.019 133.766 555.019Z" fill="#EFE7E7"/>
<path d="M132.887 564.401H309.774C310.884 564.401 311.784 565.301 311.784 566.411V566.411C311.784 567.522 310.884 568.422 309.774 568.422H132.887C131.777 568.422 130.877 567.522 130.877 566.411C130.877 565.301 131.777 564.401 132.887 564.401Z" fill="black" fill-opacity="0.07"/>
<path d="M186.495 545.637H224.016C226.607 545.637 228.707 547.737 228.707 550.327C228.707 552.918 226.607 555.018 224.016 555.018H186.495C183.904 555.018 181.805 552.918 181.805 550.327C181.805 547.737 183.904 545.637 186.495 545.637Z" fill="#FFB877"/>
<path d="M207.937 550.327C207.937 547.736 205.837 545.637 203.247 545.637H185.826C183.236 545.637 181.136 547.736 181.136 550.327C181.136 552.917 183.236 555.017 185.826 555.017H203.247C205.837 555.017 207.937 552.917 207.937 550.327Z" fill="black" fill-opacity="0.07"/>
<path d="M228.706 527.532C228.706 526.255 228.196 525.032 227.141 524.314C224.301 522.38 217.434 518.838 205.255 518.838C193.076 518.838 186.209 522.38 183.369 524.314C182.313 525.032 181.804 526.255 181.804 527.532V530.105C181.804 532.764 183.959 534.919 186.618 534.919H223.893C226.551 534.919 228.706 532.764 228.706 530.105V527.532Z" fill="#FFB877"/>
<path d="M193.865 520.175L209.276 534.916H186.495C186.495 534.916 182.278 532.296 181.805 529.556C181.438 527.429 183.145 524.195 183.145 524.195C183.145 524.195 186.307 522.317 188.505 521.515C190.532 520.776 193.865 520.175 193.865 520.175Z" fill="black" fill-opacity="0.1"/>
<path d="M184.485 540.277H226.026C227.507 540.277 228.707 541.477 228.707 542.957V542.957C228.707 544.437 227.507 545.637 226.026 545.637H184.485C183.005 545.637 181.805 544.437 181.805 542.957C181.805 541.477 183.005 540.277 184.485 540.277Z" fill="#A84E32"/>
<path d="M184.485 534.917H226.026C227.507 534.917 228.707 536.117 228.707 537.597V537.597C228.707 539.078 227.507 540.277 226.026 540.277H184.485C183.005 540.277 181.805 539.078 181.805 537.597C181.805 536.117 183.005 534.917 184.485 534.917Z" fill="#4A2216"/>
<path d="M241.434 545.637H278.955C281.546 545.637 283.646 547.737 283.646 550.327C283.646 552.918 281.546 555.018 278.955 555.018H241.434C238.843 555.018 236.744 552.918 236.744 550.327C236.744 547.737 238.843 545.637 241.434 545.637Z" fill="#FFB877"/>
<path d="M262.878 550.327C262.878 547.736 260.778 545.637 258.188 545.637H240.768C238.177 545.637 236.077 547.736 236.077 550.327C236.077 552.917 238.177 555.017 240.768 555.017H258.188C260.778 555.017 262.878 552.917 262.878 550.327Z" fill="black" fill-opacity="0.07"/>
<path d="M283.645 527.532C283.645 526.255 283.135 525.032 282.08 524.314C279.239 522.38 272.374 518.838 260.194 518.838C248.014 518.838 241.149 522.38 238.308 524.314C237.253 525.032 236.743 526.255 236.743 527.532V530.105C236.743 532.764 238.898 534.919 241.556 534.919H278.831C281.49 534.919 283.645 532.764 283.645 530.105V527.532Z" fill="#FFB877"/>
<path d="M248.804 520.175L264.215 534.916H241.434C241.434 534.916 237.217 532.296 236.743 529.556C236.376 527.429 238.083 524.195 238.083 524.195C238.083 524.195 241.246 522.317 243.444 521.515C245.471 520.776 248.804 520.175 248.804 520.175Z" fill="black" fill-opacity="0.1"/>
<path d="M239.424 540.277H280.965C282.446 540.277 283.646 541.477 283.646 542.957V542.957C283.646 544.437 282.446 545.637 280.965 545.637H239.424C237.943 545.637 236.744 544.437 236.744 542.957C236.744 541.477 237.943 540.277 239.424 540.277Z" fill="#A84E32"/>
<path d="M239.424 534.917H280.965C282.446 534.917 283.646 536.117 283.646 537.597V537.597C283.646 539.078 282.446 540.277 280.965 540.277H239.424C237.943 540.277 236.744 539.078 236.744 537.597C236.744 536.117 237.943 534.917 239.424 534.917Z" fill="#4A2216"/>
<path d="M163.049 510.802H165.729V532.242H163.049V510.802Z" fill="#ECB16B"/>
<path d="M160.364 512.139H163.044V533.58H160.364V512.139Z" fill="#F9BA71"/>
<path d="M157.695 510.802H160.375V532.242H157.695V510.802Z" fill="#ECB16B"/>
<path d="M155.019 512.139H157.699V533.58H155.019V512.139Z" fill="#F9BA71"/>
<path d="M152.326 509.464H155.006V530.905H152.326V509.464Z" fill="#ECB16B"/>
<path d="M149.638 510.801H152.318V532.242H149.638V510.801Z" fill="#F9BA71"/>
<path d="M146.972 509.464H149.652V530.905H146.972V509.464Z" fill="#ECB16B"/>
<path d="M144.296 510.801H146.977V532.242H144.296V510.801Z" fill="#F9BA71"/>
<path d="M141.607 513.482H144.287V534.923H141.607V513.482Z" fill="#ECB16B"/>
<path d="M138.93 514.825H141.61V536.266H138.93V514.825Z" fill="#F9BA71"/>
<path d="M168.402 514.814H171.082V536.255H168.402V514.814Z" fill="#ECB16B"/>
<path d="M165.715 516.151H168.396V537.592H165.715V516.151Z" fill="#F9BA71"/>
<path d="M163.039 514.814H165.719V536.255H163.039V514.814Z" fill="#ECB16B"/>
<path d="M160.362 516.151H163.042V537.592H160.362V516.151Z" fill="#F9BA71"/>
<path d="M157.679 513.476H160.359V534.917H157.679V513.476Z" fill="#ECB16B"/>
<path d="M154.991 514.819H157.671V536.26H154.991V514.819Z" fill="#F9BA71"/>
<path d="M152.325 513.476H155.005V534.917H152.325V513.476Z" fill="#ECB16B"/>
<path d="M149.647 514.819H152.327V536.26H149.647V514.819Z" fill="#F9BA71"/>
<path d="M146.96 517.501H149.64V538.942H146.96V517.501Z" fill="#ECB16B"/>
<path d="M144.283 518.846H146.963V540.287H144.283V518.846Z" fill="#F9BA71"/>
<path d="M173.768 522.866H137.587L140.937 555.028H170.418L173.768 522.866Z" fill="#F05656"/>
<path d="M146.298 522.866H137.587L140.938 555.028H159.028L146.298 522.866Z" fill="black" fill-opacity="0.03"/>
</g>
<path fill-rule="evenodd" clip-rule="evenodd" d="M210 60H240V65H210V60ZM210 70H240V75H210V70ZM240 80H210V85H240V80Z" fill="#F4B23F"/>
<defs>
<filter id="filter0_d" x="0" y="0" width="280" height="820" filterUnits="userSpaceOnUse" color-interpolation-filters="sRGB">
<feFlood flood-opacity="0" result="BackgroundImageFix"/>
<feColorMatrix in="SourceAlpha" type="matrix" values="0 0 0 0 0 0 0 0 0 0 0 0 0 0 0 0 0 0 127 0"/>
<feOffset dx="-10"/>
<feGaussianBlur stdDeviation="5"/>
<feColorMatrix type="matrix" values="0 0 0 0 0.898039 0 0 0 0 0.898039 0 0 0 0 0.898039 0 0 0 1 0"/>
<feBlend mode="normal" in2="BackgroundImageFix" result="effect1_dropShadow"/>
<feBlend mode="normal" in="SourceGraphic" in2="effect1_dropShadow" result="shape"/>
</filter>
</defs>
</svg>
